<svg width="42" height="23" viewBox="0 0 42 23" fill="none" xmlns="http://www.w3.org/2000/svg">
<rect x="0.860504" y="1.16479" width="40.5571" height="20" rx="9" fill="white"/>
<rect x="1.3605" y="1.66479" width="39.5571" height="19" rx="8.5" stroke="black" stroke-opacity="0.1"/>
<path d="M9.04023 16.5398V15.5171L12.8811 11.3125C13.3319 10.8201 13.7031 10.3921 13.9948 10.0284C14.2864 9.66101 14.5023 9.31631 14.6425 8.99434C14.7864 8.66858 14.8584 8.32767 14.8584 7.97161C14.8584 7.56252 14.7599 7.20836 14.563 6.90911C14.3698 6.60987 14.1046 6.37881 13.7675 6.21593C13.4304 6.05305 13.0516 5.97161 12.6311 5.97161C12.1842 5.97161 11.794 6.06442 11.4607 6.25002C11.1311 6.43184 10.8755 6.68752 10.6936 7.01707C10.5156 7.34661 10.4266 7.73298 10.4266 8.17616H9.08568C9.08568 7.49434 9.24288 6.89586 9.55727 6.3807C9.87167 5.86555 10.2997 5.46404 10.8414 5.17616C11.3868 4.88828 11.9986 4.74434 12.6766 4.74434C13.3584 4.74434 13.9626 4.88828 14.4891 5.17616C15.0156 5.46404 15.4285 5.85229 15.7277 6.34093C16.027 6.82957 16.1766 7.37313 16.1766 7.97161C16.1766 8.39964 16.0989 8.8182 15.9436 9.22729C15.7921 9.6326 15.527 10.0852 15.1482 10.5852C14.7732 11.0815 14.2523 11.6875 13.5857 12.4034L10.972 15.1989V15.2898H16.3811V16.5398H9.04023Z" fill="black"/>
<path d="M30.7865 8.15796L32.7467 11.5031L34.7069 8.15796H36.1558L33.5137 12.2489L36.1558 16.3398H34.7069L32.7467 13.1651L30.7865 16.3398H29.3376L31.937 12.2489L29.3376 8.15796H30.7865Z" fill="black"/>
</svg>
