<svg width="42" height="23" viewBox="0 0 42 23" fill="none" xmlns="http://www.w3.org/2000/svg">
<rect x="0.860504" y="1.11096" width="40.5571" height="20" rx="9" fill="white"/>
<rect x="1.3605" y="1.61096" width="39.5571" height="19" rx="8.5" stroke="black" stroke-opacity="0.1"/>
<path d="M12.722 16.6451C11.972 16.6451 11.3035 16.5163 10.7164 16.2587C10.133 16.0011 9.66901 15.6432 9.32432 15.1848C8.98341 14.7227 8.7978 14.1867 8.7675 13.5769H10.1993C10.2296 13.9519 10.3584 14.2757 10.5857 14.5485C10.813 14.8174 11.1103 15.0257 11.4777 15.1735C11.8452 15.3212 12.2523 15.3951 12.6993 15.3951C13.1993 15.3951 13.6425 15.3079 14.0289 15.1337C14.4152 14.9594 14.7183 14.717 14.938 14.4064C15.1577 14.0958 15.2675 13.736 15.2675 13.3269C15.2675 12.8988 15.1614 12.5219 14.9493 12.1962C14.7372 11.8666 14.4266 11.6091 14.0175 11.4235C13.6084 11.2379 13.1084 11.1451 12.5175 11.1451H11.5857V9.89505H12.5175C12.9796 9.89505 13.3849 9.81172 13.7334 9.64505C14.0857 9.47839 14.3603 9.24354 14.5573 8.94051C14.758 8.63748 14.8584 8.28142 14.8584 7.87232C14.8584 7.47839 14.7713 7.13558 14.597 6.84392C14.4228 6.55225 14.1766 6.32498 13.8584 6.1621C13.544 5.99922 13.1728 5.91778 12.7448 5.91778C12.3433 5.91778 11.9645 5.99164 11.6084 6.13937C11.2561 6.28331 10.9683 6.49354 10.7448 6.77005C10.5213 7.04278 10.4001 7.37233 10.3811 7.75869H9.0175C9.04023 7.14884 9.22394 6.61475 9.56864 6.15642C9.91333 5.69429 10.3641 5.33445 10.9209 5.07687C11.4815 4.81929 12.097 4.69051 12.7675 4.69051C13.4872 4.69051 14.1046 4.83634 14.6198 5.12801C15.1349 5.41589 15.5308 5.79657 15.8073 6.27005C16.0838 6.74354 16.222 7.2549 16.222 7.80414C16.222 8.45945 16.0497 9.01816 15.705 9.48028C15.3641 9.9424 14.9001 10.2625 14.313 10.4405V10.5314C15.0478 10.6526 15.6217 10.9651 16.0345 11.4689C16.4474 11.9689 16.6539 12.5882 16.6539 13.3269C16.6539 13.9594 16.4815 14.5276 16.1368 15.0314C15.7959 15.5314 15.33 15.9254 14.7391 16.2132C14.1482 16.5011 13.4758 16.6451 12.722 16.6451Z" fill="black"/>
<path d="M32.7595 19.4851C32.7595 19.4851 32.1768 18.2816 30.6578 14.6268C29.1389 10.972 27.9276 7.77057 29.2931 4.60326C30.6586 1.43594 32.7595 6.00893 32.7595 6.00893C32.7595 6.00893 34.4005 2.14982 35.8961 4.60326C37.3916 7.05669 36.7671 9.58503 34.8612 14.6268C32.9554 19.6685 32.7595 19.4851 32.7595 19.4851Z" fill="#FF0000"/>
</svg>
