<svg width="42" height="23" viewBox="0 0 42 23" fill="none" xmlns="http://www.w3.org/2000/svg">
<rect x="0.860474" y="1.16486" width="40.5571" height="20" rx="9" fill="white"/>
<rect x="1.36047" y="1.66486" width="39.5571" height="19" rx="8.5" stroke="black" stroke-opacity="0.1"/>
<path d="M12.6532 16.6989C11.9865 16.6989 11.3861 16.5664 10.852 16.3012C10.318 16.0361 9.88993 15.6724 9.56796 15.2103C9.24599 14.7482 9.06985 14.2217 9.03955 13.6308H10.4032C10.4562 14.1573 10.6949 14.5929 11.1191 14.9376C11.5471 15.2785 12.0585 15.4489 12.6532 15.4489C13.1305 15.4489 13.5547 15.3372 13.9259 15.1137C14.3009 14.8902 14.5945 14.5834 14.8066 14.1933C15.0225 13.7993 15.1305 13.3542 15.1305 12.858C15.1305 12.3505 15.0187 11.8978 14.7952 11.5001C14.5755 11.0986 14.2725 10.7823 13.8861 10.5512C13.4998 10.3202 13.0585 10.2027 12.5623 10.1989C12.2062 10.1952 11.8407 10.2501 11.4657 10.3637C11.0907 10.4736 10.782 10.6156 10.5395 10.7899L9.22137 10.6308L9.92591 4.90349H15.9714V6.15349H11.1077L10.6986 9.58531H10.7668C11.0055 9.39592 11.3047 9.23872 11.6645 9.11372C12.0244 8.98872 12.3994 8.92622 12.7895 8.92622C13.5017 8.92622 14.1361 9.09667 14.693 9.43758C15.2536 9.7747 15.693 10.2368 16.0111 10.8239C16.3331 11.4111 16.4941 12.0815 16.4941 12.8353C16.4941 13.5777 16.3274 14.2406 15.9941 14.8239C15.6645 15.4035 15.21 15.8618 14.6305 16.1989C14.0509 16.5323 13.3918 16.6989 12.6532 16.6989Z" fill="black"/>
<path d="M32.7135 3.53986L36.7287 11.5399L32.7135 19.5399L28.6984 11.5399L32.7135 3.53986Z" fill="#2E73FA"/>
</svg>
