<svg width="42" height="23" viewBox="0 0 42 23" fill="none" xmlns="http://www.w3.org/2000/svg">
<rect x="0.860504" y="1.16486" width="40.5571" height="20" rx="9" fill="white"/>
<rect x="1.3605" y="1.66486" width="39.5571" height="19" rx="8.5" stroke="black" stroke-opacity="0.1"/>
<path d="M12.6532 16.6989C11.9865 16.6989 11.3861 16.5664 10.852 16.3012C10.3179 16.0361 9.8899 15.6724 9.56793 15.2103C9.24596 14.7482 9.06982 14.2217 9.03952 13.6308H10.4032C10.4562 14.1573 10.6948 14.5929 11.1191 14.9376C11.5471 15.2785 12.0585 15.4489 12.6532 15.4489C13.1304 15.4489 13.5547 15.3372 13.9259 15.1137C14.3009 14.8902 14.5944 14.5834 14.8066 14.1933C15.0225 13.7993 15.1304 13.3542 15.1304 12.858C15.1304 12.3505 15.0187 11.8978 14.7952 11.5001C14.5755 11.0986 14.2725 10.7823 13.8861 10.5512C13.4997 10.3202 13.0585 10.2027 12.5622 10.1989C12.2062 10.1952 11.8407 10.2501 11.4657 10.3637C11.0907 10.4736 10.7819 10.6156 10.5395 10.7899L9.22133 10.6308L9.92588 4.90349H15.9713V6.15349H11.1077L10.6986 9.58531H10.7668C11.0054 9.39592 11.3047 9.23872 11.6645 9.11372C12.0244 8.98872 12.3994 8.92622 12.7895 8.92622C13.5016 8.92622 14.1361 9.09667 14.6929 9.43758C15.2535 9.7747 15.6929 10.2368 16.0111 10.8239C16.3331 11.4111 16.4941 12.0815 16.4941 12.8353C16.4941 13.5777 16.3274 14.2406 15.9941 14.8239C15.6645 15.4035 15.21 15.8618 14.6304 16.1989C14.0509 16.5323 13.3918 16.6989 12.6532 16.6989Z" fill="black"/>
<path d="M32.6676 3.54043C32.6676 3.54043 33.2503 4.36069 34.7692 6.85158C36.2882 9.34247 37.4995 11.5244 36.134 13.683C34.7685 15.8417 32.6676 12.725 32.6676 12.725C32.6676 12.725 31.0265 15.3552 29.531 13.683C28.0355 12.0109 28.66 10.2877 30.5659 6.85158C32.4717 3.41542 32.6676 3.54043 32.6676 3.54043Z" fill="black"/>
<path d="M32.6634 12.7244L33.9749 15.4813L36.0971 17.836L32.6634 17.4338L29.2296 17.836L31.3518 15.4813L32.6634 12.7244Z" fill="black"/>
</svg>
