<svg width="42" height="23" viewBox="0 0 42 23" fill="none" xmlns="http://www.w3.org/2000/svg">
<rect x="0.860474" y="1.16486" width="40.5571" height="20" rx="9" fill="white"/>
<rect x="1.36047" y="1.66486" width="39.5571" height="19" rx="8.5" stroke="black" stroke-opacity="0.1"/>
<path d="M12.7555 16.6989C12.2782 16.6914 11.8009 16.6005 11.3236 16.4262C10.8464 16.252 10.4108 15.9584 10.0168 15.5455C9.62288 15.1289 9.30659 14.5664 9.06796 13.858C8.82932 13.1459 8.71 12.252 8.71 11.1762C8.71 10.1459 8.80659 9.23304 8.99977 8.43758C9.19296 7.63834 9.47326 6.96599 9.84068 6.42054C10.2081 5.8713 10.6513 5.45463 11.1702 5.17054C11.693 4.88645 12.282 4.7444 12.9373 4.7444C13.5888 4.7444 14.1683 4.87508 14.6759 5.13645C15.1873 5.39402 15.6039 5.75387 15.9259 6.21599C16.2479 6.67811 16.4562 7.21031 16.5509 7.81258H15.1645C15.0358 7.28986 14.7858 6.85614 14.4145 6.51145C14.0433 6.16675 13.5509 5.9944 12.9373 5.9944C12.0358 5.9944 11.3255 6.38645 10.8066 7.17054C10.2914 7.95463 10.032 9.05501 10.0282 10.4717H10.1191C10.3312 10.1497 10.5831 9.87508 10.8748 9.64781C11.1702 9.41675 11.496 9.23872 11.852 9.11372C12.2081 8.98872 12.585 8.92622 12.9827 8.92622C13.6494 8.92622 14.2592 9.09289 14.8123 9.42622C15.3653 9.75576 15.8085 10.2122 16.1418 10.7955C16.4752 11.3751 16.6418 12.0399 16.6418 12.7899C16.6418 13.5096 16.4808 14.1686 16.1589 14.7671C15.8369 15.3618 15.3842 15.8353 14.8009 16.1876C14.2214 16.5361 13.5395 16.7065 12.7555 16.6989ZM12.7555 15.4489C13.2327 15.4489 13.6608 15.3296 14.0395 15.091C14.4221 14.8524 14.7233 14.5323 14.943 14.1308C15.1664 13.7292 15.2782 13.2823 15.2782 12.7899C15.2782 12.3088 15.1702 11.8713 14.9543 11.4774C14.7422 11.0796 14.4486 10.7633 14.0736 10.5285C13.7024 10.2936 13.2782 10.1762 12.8009 10.1762C12.4411 10.1762 12.1058 10.2482 11.7952 10.3921C11.4846 10.5323 11.2119 10.7255 10.977 10.9717C10.746 11.2179 10.5642 11.5001 10.4316 11.8183C10.299 12.1327 10.2327 12.4641 10.2327 12.8126C10.2327 13.2747 10.3407 13.7065 10.5566 14.108C10.7763 14.5096 11.0755 14.8334 11.4543 15.0796C11.8369 15.3258 12.2706 15.4489 12.7555 15.4489Z" fill="black"/>
<path d="M32.7135 3.53986L36.7287 11.5399L32.7135 19.5399L28.6984 11.5399L32.7135 3.53986Z" fill="#2E73FA"/>
</svg>
