<svg width="42" height="23" viewBox="0 0 42 23" fill="none" xmlns="http://www.w3.org/2000/svg">
<rect x="0.860504" y="1.16486" width="40.5571" height="20" rx="9" fill="white"/>
<rect x="1.3605" y="1.66486" width="39.5571" height="19" rx="8.5" stroke="black" stroke-opacity="0.1"/>
<path d="M12.6816 16.6989C11.9013 16.6989 11.2119 16.5607 10.6134 16.2842C10.0187 16.0039 9.55467 15.6194 9.22133 15.1308C8.888 14.6383 8.72323 14.0777 8.72702 13.4489C8.72323 12.9565 8.81982 12.502 9.01679 12.0853C9.21376 11.6649 9.4827 11.3145 9.82361 11.0342C10.1683 10.7501 10.5528 10.5702 10.977 10.4944V10.4262C10.4202 10.2823 9.97702 9.96978 9.64747 9.48872C9.31793 9.00387 9.15505 8.45273 9.15883 7.83531C9.15505 7.2444 9.30467 6.71599 9.6077 6.25008C9.91073 5.78417 10.3274 5.41675 10.8577 5.14781C11.3918 4.87887 11.9997 4.7444 12.6816 4.7444C13.3558 4.7444 13.9581 4.87887 14.4884 5.14781C15.0187 5.41675 15.4354 5.78417 15.7384 6.25008C16.0452 6.71599 16.2005 7.2444 16.2043 7.83531C16.2005 8.45273 16.0319 9.00387 15.6986 9.48872C15.3691 9.96978 14.9316 10.2823 14.3861 10.4262V10.4944C14.8066 10.5702 15.1854 10.7501 15.5225 11.0342C15.8596 11.3145 16.1285 11.6649 16.3293 12.0853C16.53 12.502 16.6323 12.9565 16.6361 13.4489C16.6323 14.0777 16.4619 14.6383 16.1247 15.1308C15.7914 15.6194 15.3274 16.0039 14.7327 16.2842C14.1418 16.5607 13.4581 16.6989 12.6816 16.6989ZM12.6816 15.4489C13.2081 15.4489 13.6626 15.3637 14.0452 15.1933C14.4278 15.0228 14.7232 14.7823 14.9316 14.4717C15.1399 14.1611 15.246 13.7974 15.2497 13.3808C15.246 12.9414 15.1323 12.5531 14.9088 12.216C14.6854 11.8789 14.3804 11.6137 13.9941 11.4205C13.6115 11.2274 13.174 11.1308 12.6816 11.1308C12.1854 11.1308 11.7422 11.2274 11.352 11.4205C10.9657 11.6137 10.6607 11.8789 10.4372 12.216C10.2175 12.5531 10.1096 12.9414 10.1134 13.3808C10.1096 13.7974 10.21 14.1611 10.4145 14.4717C10.6229 14.7823 10.9202 15.0228 11.3066 15.1933C11.6929 15.3637 12.1513 15.4489 12.6816 15.4489ZM12.6816 9.92622C13.0982 9.92622 13.4675 9.84289 13.7895 9.67622C14.1153 9.50955 14.371 9.2766 14.5566 8.97736C14.7422 8.67811 14.8369 8.32773 14.8407 7.92622C14.8369 7.53228 14.7441 7.18948 14.5622 6.89781C14.3804 6.60236 14.1285 6.37508 13.8066 6.21599C13.4846 6.05311 13.1096 5.97167 12.6816 5.97167C12.246 5.97167 11.8653 6.05311 11.5395 6.21599C11.2138 6.37508 10.9619 6.60236 10.7838 6.89781C10.6058 7.18948 10.5187 7.53228 10.5225 7.92622C10.5187 8.32773 10.6077 8.67811 10.7895 8.97736C10.9751 9.2766 11.2308 9.50955 11.5566 9.67622C11.8823 9.84289 12.2573 9.92622 12.6816 9.92622Z" fill="black"/>
<path d="M32.7595 19.539C32.7595 19.539 32.1768 18.3355 30.6578 14.6807C29.1389 11.0259 27.9276 7.82446 29.2931 4.65715C30.6586 1.48984 32.7595 6.06283 32.7595 6.06283C32.7595 6.06283 34.4005 2.20372 35.8961 4.65715C37.3916 7.11059 36.7671 9.63893 34.8612 14.6807C32.9554 19.7224 32.7595 19.539 32.7595 19.539Z" fill="#FF0000"/>
</svg>
