<svg width="42" height="23" viewBox="0 0 42 23" fill="none" xmlns="http://www.w3.org/2000/svg">
<rect x="0.860504" y="1.16486" width="40.5571" height="20" rx="9" fill="white"/>
<rect x="1.3605" y="1.66486" width="39.5571" height="19" rx="8.5" stroke="black" stroke-opacity="0.1"/>
<path d="M12.5963 4.7444C13.0736 4.74819 13.5509 4.8391 14.0282 5.01713C14.5054 5.19516 14.941 5.49061 15.335 5.90349C15.7289 6.31258 16.0452 6.87129 16.2838 7.57963C16.5225 8.28796 16.6418 9.17622 16.6418 10.2444C16.6418 11.2785 16.5433 12.1971 16.3463 13.0001C16.1532 13.7993 15.8728 14.4736 15.5054 15.0228C15.1418 15.5721 14.6986 15.9887 14.1759 16.2728C13.6569 16.5569 13.0698 16.6989 12.4145 16.6989C11.763 16.6989 11.1816 16.5702 10.6702 16.3126C10.1626 16.0512 9.74596 15.6895 9.4202 15.2274C9.09823 14.7614 8.89179 14.2217 8.80088 13.608H10.1872C10.3122 14.1421 10.5604 14.5834 10.9316 14.9319C11.3066 15.2766 11.8009 15.4489 12.4145 15.4489C13.3122 15.4489 14.0206 15.0569 14.5395 14.2728C15.0622 13.4887 15.3236 12.3808 15.3236 10.9489H15.2327C15.0206 11.2671 14.7687 11.5417 14.477 11.7728C14.1854 12.0039 13.8615 12.1819 13.5054 12.3069C13.1494 12.4319 12.7706 12.4944 12.3691 12.4944C11.7024 12.4944 11.0907 12.3296 10.5338 12.0001C9.9808 11.6667 9.53762 11.2103 9.20429 10.6308C8.87474 10.0474 8.70997 9.38076 8.70997 8.63076C8.70997 7.91864 8.86906 7.26713 9.18724 6.67622C9.50921 6.08152 9.95997 5.60804 10.5395 5.25576C11.1229 4.90349 11.8085 4.73304 12.5963 4.7444ZM12.5963 5.9944C12.1191 5.9944 11.6891 6.11372 11.3066 6.35236C10.9278 6.5872 10.6266 6.90539 10.4032 7.3069C10.1835 7.70463 10.0736 8.14592 10.0736 8.63076C10.0736 9.11561 10.1797 9.5569 10.3918 9.95463C10.6077 10.3486 10.9013 10.663 11.2725 10.8978C11.6475 11.1289 12.0736 11.2444 12.5509 11.2444C12.9107 11.2444 13.246 11.1743 13.5566 11.0342C13.8672 10.8902 14.138 10.6952 14.3691 10.4489C14.6039 10.1989 14.7876 9.91675 14.9202 9.60236C15.0528 9.28417 15.1191 8.95273 15.1191 8.60804C15.1191 8.15349 15.0092 7.72736 14.7895 7.32963C14.5736 6.9319 14.2744 6.60993 13.8918 6.36372C13.513 6.11751 13.0812 5.9944 12.5963 5.9944Z" fill="black"/>
<path d="M32.6676 3.54043C32.6676 3.54043 33.2503 4.36069 34.7692 6.85158C36.2882 9.34247 37.4995 11.5244 36.134 13.683C34.7685 15.8417 32.6676 12.725 32.6676 12.725C32.6676 12.725 31.0265 15.3552 29.531 13.683C28.0355 12.0109 28.66 10.2877 30.5659 6.85158C32.4717 3.41542 32.6676 3.54043 32.6676 3.54043Z" fill="black"/>
<path d="M32.6634 12.7244L33.9749 15.4813L36.0971 17.836L32.6634 17.4338L29.2296 17.836L31.3518 15.4813L32.6634 12.7244Z" fill="black"/>
</svg>
