<svg width="42" height="23" viewBox="0 0 42 23" fill="none" xmlns="http://www.w3.org/2000/svg">
<rect x="0.860504" y="1.16486" width="40.5571" height="20" rx="9" fill="white"/>
<rect x="1.3605" y="1.66486" width="39.5571" height="19" rx="8.5" stroke="black" stroke-opacity="0.1"/>
<path d="M9.15955 16.5399H7.68227L11.955 4.90349H13.4095L17.6823 16.5399H16.205L12.7277 6.7444H12.6368L9.15955 16.5399ZM9.705 11.9944H15.6595V13.2444H9.705V11.9944Z" fill="black"/>
<ellipse cx="30.7668" cy="11.5878" rx="2.06841" ry="3.25749" fill="#1BA039"/>
<ellipse cx="34.6603" cy="11.5878" rx="2.06841" ry="3.25749" fill="#1BA039"/>
<ellipse cx="32.7136" cy="6.79734" rx="2.06841" ry="3.25749" fill="#1BA039"/>
<path d="M32.7288 10.5458L32.5905 10.0518H32.8671L32.7288 10.5458Z" fill="#1BA039"/>
<path d="M32.7136 12.7375L33.3978 15.4891L34.5048 17.8393L32.7136 17.4378L30.9223 17.8393L32.0293 15.4891L32.7136 12.7375Z" fill="#1BA039"/>
</svg>
