<svg width="42" height="23" viewBox="0 0 42 23" fill="none" xmlns="http://www.w3.org/2000/svg">
<rect x="0.860504" y="1.16486" width="40.5571" height="20" rx="9" fill="white"/>
<rect x="1.3605" y="1.66486" width="39.5571" height="19" rx="8.5" stroke="black" stroke-opacity="0.1"/>
<path d="M9.15955 16.5399H7.68227L11.955 4.90349H13.4095L17.6823 16.5399H16.205L12.7277 6.7444H12.6368L9.15955 16.5399ZM9.705 11.9944H15.6595V13.2444H9.705V11.9944Z" fill="black"/>
<path d="M32.6676 3.54043C32.6676 3.54043 33.2503 4.36069 34.7692 6.85158C36.2882 9.34247 37.4995 11.5244 36.134 13.683C34.7685 15.8417 32.6676 12.725 32.6676 12.725C32.6676 12.725 31.0265 15.3552 29.531 13.683C28.0355 12.0109 28.66 10.2877 30.5659 6.85158C32.4717 3.41542 32.6676 3.54043 32.6676 3.54043Z" fill="black"/>
<path d="M32.6634 12.7244L33.9749 15.4813L36.0971 17.836L32.6634 17.4338L29.2296 17.836L31.3518 15.4813L32.6634 12.7244Z" fill="black"/>
</svg>
