<svg width="42" height="23" viewBox="0 0 42 23" fill="none" xmlns="http://www.w3.org/2000/svg">
<rect x="0.860474" y="1.16486" width="40.5571" height="20" rx="9" fill="white"/>
<rect x="1.36047" y="1.66486" width="39.5571" height="19" rx="8.5" stroke="black" stroke-opacity="0.1"/>
<path d="M14.1993 4.90349H15.6084V13.2217C15.6084 13.9641 15.4721 14.5948 15.1993 15.1137C14.9266 15.6327 14.5422 16.0266 14.0459 16.2955C13.5497 16.5645 12.9645 16.6989 12.2903 16.6989C11.6539 16.6989 11.0876 16.5834 10.5914 16.3524C10.0952 16.1175 9.70503 15.7842 9.42094 15.3524C9.13685 14.9205 8.9948 14.4073 8.9948 13.8126H10.3812C10.3812 14.1421 10.4626 14.43 10.6255 14.6762C10.7922 14.9186 11.0194 15.108 11.3073 15.2444C11.5952 15.3808 11.9228 15.4489 12.2903 15.4489C12.6956 15.4489 13.0403 15.3637 13.3243 15.1933C13.6084 15.0228 13.8243 14.7728 13.9721 14.4433C14.1236 14.1099 14.1993 13.7027 14.1993 13.2217V4.90349Z" fill="black"/>
<path d="M32.7135 3.53986L36.7287 11.5399L32.7135 19.5399L28.6984 11.5399L32.7135 3.53986Z" fill="#2E73FA"/>
</svg>
