<svg width="42" height="23" viewBox="0 0 42 23" fill="none" xmlns="http://www.w3.org/2000/svg">
<rect x="0.860504" y="1.16486" width="40.5571" height="20" rx="9" fill="white"/>
<rect x="1.3605" y="1.66486" width="39.5571" height="19" rx="8.5" stroke="black" stroke-opacity="0.1"/>
<path d="M14.1993 4.90349H15.6084V13.2217C15.6084 13.9641 15.472 14.5948 15.1993 15.1137C14.9266 15.6327 14.5421 16.0266 14.0459 16.2955C13.5497 16.5645 12.9645 16.6989 12.2902 16.6989C11.6539 16.6989 11.0876 16.5834 10.5914 16.3524C10.0952 16.1175 9.705 15.7842 9.42091 15.3524C9.13682 14.9205 8.99477 14.4073 8.99477 13.8126H10.3811C10.3811 14.1421 10.4626 14.43 10.6255 14.6762C10.7921 14.9186 11.0194 15.108 11.3073 15.2444C11.5952 15.3808 11.9228 15.4489 12.2902 15.4489C12.6955 15.4489 13.0402 15.3637 13.3243 15.1933C13.6084 15.0228 13.8243 14.7728 13.972 14.4433C14.1236 14.1099 14.1993 13.7027 14.1993 13.2217V4.90349Z" fill="black"/>
<path d="M32.6676 3.54043C32.6676 3.54043 33.2503 4.36069 34.7692 6.85158C36.2882 9.34247 37.4995 11.5244 36.134 13.683C34.7685 15.8417 32.6676 12.725 32.6676 12.725C32.6676 12.725 31.0265 15.3552 29.531 13.683C28.0355 12.0109 28.66 10.2877 30.5659 6.85158C32.4717 3.41542 32.6676 3.54043 32.6676 3.54043Z" fill="black"/>
<path d="M32.6634 12.7244L33.9749 15.4813L36.0971 17.836L32.6634 17.4338L29.2296 17.836L31.3518 15.4813L32.6634 12.7244Z" fill="black"/>
</svg>
