<svg width="42" height="23" viewBox="0 0 42 23" fill="none" xmlns="http://www.w3.org/2000/svg">
<rect x="0.860504" y="1.16486" width="40.5571" height="20" rx="9" fill="white"/>
<rect x="1.3605" y="1.66486" width="39.5571" height="19" rx="8.5" stroke="black" stroke-opacity="0.1"/>
<path d="M8.86977 16.5399V4.90349H10.2789V10.6762H10.4152L15.6425 4.90349H17.4834L12.597 10.1535L17.4834 16.5399H15.7789L11.7334 11.1308L10.2789 12.7671V16.5399H8.86977Z" fill="black"/>
<ellipse cx="30.7668" cy="11.5878" rx="2.06841" ry="3.25749" fill="#1BA039"/>
<ellipse cx="34.6603" cy="11.5878" rx="2.06841" ry="3.25749" fill="#1BA039"/>
<ellipse cx="32.7136" cy="6.79734" rx="2.06841" ry="3.25749" fill="#1BA039"/>
<path d="M32.7288 10.5458L32.5905 10.0518H32.8671L32.7288 10.5458Z" fill="#1BA039"/>
<path d="M32.7136 12.7375L33.3978 15.4891L34.5048 17.8393L32.7136 17.4378L30.9223 17.8393L32.0293 15.4891L32.7136 12.7375Z" fill="#1BA039"/>
</svg>
