<svg width="42" height="23" viewBox="0 0 42 23" fill="none" xmlns="http://www.w3.org/2000/svg">
<rect x="0.860504" y="1.16486" width="40.5571" height="20" rx="9" fill="white"/>
<rect x="1.3605" y="1.66486" width="39.5571" height="19" rx="8.5" stroke="black" stroke-opacity="0.1"/>
<path d="M8.86977 16.5399V4.90349H10.2789V10.6762H10.4152L15.6425 4.90349H17.4834L12.597 10.1535L17.4834 16.5399H15.7789L11.7334 11.1308L10.2789 12.7671V16.5399H8.86977Z" fill="black"/>
<path d="M32.7595 19.539C32.7595 19.539 32.1768 18.3355 30.6578 14.6807C29.1389 11.0259 27.9276 7.82446 29.2931 4.65715C30.6586 1.48984 32.7595 6.06283 32.7595 6.06283C32.7595 6.06283 34.4005 2.20372 35.8961 4.65715C37.3916 7.11059 36.7671 9.63893 34.8612 14.6807C32.9554 19.7224 32.7595 19.539 32.7595 19.539Z" fill="#FF0000"/>
</svg>
