<svg width="42" height="23" viewBox="0 0 42 23" fill="none" xmlns="http://www.w3.org/2000/svg">
<rect x="0.860474" y="1.16486" width="40.5571" height="20" rx="9" fill="white"/>
<rect x="1.36047" y="1.66486" width="39.5571" height="19" rx="8.5" stroke="black" stroke-opacity="0.1"/>
<path d="M12.2221 12.9035H13.7675L15.063 14.608L15.4039 15.0626L17.3357 17.6308H15.7903L14.5175 15.9262L14.1993 15.4944L12.2221 12.9035ZM17.813 10.7217C17.813 11.9489 17.5914 13.0096 17.1482 13.9035C16.705 14.7974 16.0971 15.4868 15.3243 15.9717C14.5516 16.4565 13.669 16.6989 12.6766 16.6989C11.6842 16.6989 10.8016 16.4565 10.0289 15.9717C9.25617 15.4868 8.64821 14.7974 8.20503 13.9035C7.76185 13.0096 7.54026 11.9489 7.54026 10.7217C7.54026 9.4944 7.76185 8.4338 8.20503 7.53986C8.64821 6.64592 9.25617 5.95652 10.0289 5.47167C10.8016 4.98683 11.6842 4.7444 12.6766 4.7444C13.669 4.7444 14.5516 4.98683 15.3243 5.47167C16.0971 5.95652 16.705 6.64592 17.1482 7.53986C17.5914 8.4338 17.813 9.4944 17.813 10.7217ZM16.4493 10.7217C16.4493 9.7141 16.2808 8.86372 15.9437 8.17054C15.6103 7.47736 15.1577 6.95273 14.5857 6.59667C14.0175 6.24061 13.3812 6.06258 12.6766 6.06258C11.9721 6.06258 11.3338 6.24061 10.7618 6.59667C10.1937 6.95273 9.74102 7.47736 9.40389 8.17054C9.07056 8.86372 8.90389 9.7141 8.90389 10.7217C8.90389 11.7292 9.07056 12.5796 9.40389 13.2728C9.74102 13.966 10.1937 14.4906 10.7618 14.8467C11.3338 15.2027 11.9721 15.3808 12.6766 15.3808C13.3812 15.3808 14.0175 15.2027 14.5857 14.8467C15.1577 14.4906 15.6103 13.966 15.9437 13.2728C16.2808 12.5796 16.4493 11.7292 16.4493 10.7217Z" fill="black"/>
<path d="M32.7135 3.53986L36.7287 11.5399L32.7135 19.5399L28.6984 11.5399L32.7135 3.53986Z" fill="#2E73FA"/>
</svg>
