<svg width="42" height="23" viewBox="0 0 42 23" fill="none" xmlns="http://www.w3.org/2000/svg">
<rect x="0.860504" y="1.16479" width="40.5571" height="20" rx="9" fill="white"/>
<rect x="1.3605" y="1.66479" width="39.5571" height="19" rx="8.5" stroke="black" stroke-opacity="0.1"/>
<path d="M9.63753 4.90343L12.6375 9.74434H12.7284L15.7284 4.90343H17.3875L13.7284 10.7216L17.3875 16.5398H15.7284L12.7284 11.7898H12.6375L9.63753 16.5398H7.97844L11.7284 10.7216L7.97844 4.90343H9.63753Z" fill="black"/>
<ellipse cx="30.7668" cy="11.5877" rx="2.06841" ry="3.25749" fill="#1BA039"/>
<ellipse cx="34.6603" cy="11.5877" rx="2.06841" ry="3.25749" fill="#1BA039"/>
<ellipse cx="32.7136" cy="6.79728" rx="2.06841" ry="3.25749" fill="#1BA039"/>
<path d="M32.7288 10.5458L32.5905 10.0518H32.8671L32.7288 10.5458Z" fill="#1BA039"/>
<path d="M32.7136 12.7374L33.3978 15.4891L34.5048 17.8392L32.7136 17.4378L30.9223 17.8392L32.0293 15.4891L32.7136 12.7374Z" fill="#1BA039"/>
</svg>
