<svg width="42" height="23" viewBox="0 0 42 23" fill="none" xmlns="http://www.w3.org/2000/svg">
<rect x="0.860504" y="1.16479" width="40.5571" height="20" rx="9" fill="white"/>
<rect x="1.3605" y="1.66479" width="39.5571" height="19" rx="8.5" stroke="black" stroke-opacity="0.1"/>
<path d="M9.63753 4.90343L12.6375 9.74434H12.7284L15.7284 4.90343H17.3875L13.7284 10.7216L17.3875 16.5398H15.7284L12.7284 11.7898H12.6375L9.63753 16.5398H7.97844L11.7284 10.7216L7.97844 4.90343H9.63753Z" fill="black"/>
<path d="M32.7595 19.539C32.7595 19.539 32.1768 18.3354 30.6578 14.6806C29.1389 11.0258 27.9276 7.8244 29.2931 4.65709C30.6586 1.48978 32.7595 6.06277 32.7595 6.06277C32.7595 6.06277 34.4005 2.20365 35.8961 4.65709C37.3916 7.11053 36.7671 9.63887 34.8612 14.6806C32.9554 19.7224 32.7595 19.539 32.7595 19.539Z" fill="#FF0000"/>
</svg>
