<svg width="42" height="23" viewBox="0 0 42 23" fill="none" xmlns="http://www.w3.org/2000/svg">
<rect x="0.860504" y="1.16479" width="40.5571" height="20" rx="9" fill="white"/>
<rect x="1.3605" y="1.66479" width="39.5571" height="19" rx="8.5" stroke="black" stroke-opacity="0.1"/>
<path d="M9.63753 4.90343L12.6375 9.74434H12.7284L15.7284 4.90343H17.3875L13.7284 10.7216L17.3875 16.5398H15.7284L12.7284 11.7898H12.6375L9.63753 16.5398H7.97844L11.7284 10.7216L7.97844 4.90343H9.63753Z" fill="black"/>
<path d="M32.6676 3.54037C32.6676 3.54037 33.2503 4.36063 34.7692 6.85152C36.2882 9.34241 37.4995 11.5243 36.134 13.683C34.7685 15.8416 32.6676 12.7249 32.6676 12.7249C32.6676 12.7249 31.0265 15.3551 29.531 13.683C28.0355 12.0109 28.66 10.2877 30.5659 6.85152C32.4717 3.41535 32.6676 3.54037 32.6676 3.54037Z" fill="black"/>
<path d="M32.6634 12.7244L33.9749 15.4813L36.0971 17.8359L32.6634 17.4337L29.2296 17.8359L31.3518 15.4813L32.6634 12.7244Z" fill="black"/>
</svg>
